<svg viewBox="0 0 240 160" xmlns="http://www.w3.org/2000/svg">
  <defs>
    <linearGradient id="g5" x1="0" y1="0" x2="1" y2="1">
      <stop offset="0%" stop-color="#c4b5fd"/>
      <stop offset="100%" stop-color="#8b5cf6"/>
    </linearGradient>
  </defs>
  <ellipse cx="120" cy="140" rx="98" ry="8" fill="#000" opacity="0.25"/>
  <path d="M22 106 C22 86 48 76 70 76 C94 76 100 60 126 54 C158 47 182 58 196 76 C206 88 206 106 194 116 C178 128 140 130 92 130 C58 130 26 122 22 106 Z" fill="#15121c" stroke="url(#g5)" stroke-width="3"/>
  <path d="M70 76 C94 76 100 60 126 54 C144 50 160 53 174 61" fill="none" stroke="url(#g5)" stroke-width="6" stroke-linecap="round"/>
  <path d="M36 96 L196 96" stroke="#a78bfa" stroke-width="3" stroke-dasharray="2 6" stroke-linecap="round" opacity="0.7"/>
</svg>
