<svg viewBox="0 0 240 160" xmlns="http://www.w3.org/2000/svg">
  <defs>
    <linearGradient id="g4" x1="0" y1="0" x2="1" y2="1">
      <stop offset="0%" stop-color="#e5e7eb"/>
      <stop offset="100%" stop-color="#9ca3af"/>
    </linearGradient>
  </defs>
  <ellipse cx="120" cy="142" rx="102" ry="9" fill="#000" opacity="0.25"/>
  <path d="M18 108 C18 86 48 76 72 76 C98 76 104 60 130 54 C162 47 188 58 202 76 C214 90 214 110 200 120 C182 132 142 134 94 134 C58 134 22 126 18 108 Z" fill="#14161c" stroke="url(#g4)" stroke-width="3"/>
  <path d="M72 76 C98 76 104 60 130 54 C148 50 166 53 180 61" fill="none" stroke="url(#g4)" stroke-width="6" stroke-linecap="round"/>
  <rect x="24" y="118" width="182" height="16" rx="6" fill="#05060a" stroke="#9ca3af" stroke-width="2"/>
</svg>
