<svg viewBox="0 0 240 160" xmlns="http://www.w3.org/2000/svg">
  <defs>
    <linearGradient id="g2" x1="0" y1="0" x2="1" y2="1">
      <stop offset="0%" stop-color="#7dd3fc"/>
      <stop offset="100%" stop-color="#0ea5e9"/>
    </linearGradient>
  </defs>
  <ellipse cx="120" cy="142" rx="102" ry="9" fill="#000" opacity="0.25"/>
  <path d="M18 108 C18 84 48 74 74 74 C100 74 104 58 132 52 C168 45 194 58 208 76 C220 90 220 112 206 122 C188 134 146 136 96 136 C58 136 22 128 18 108 Z" fill="#12151f" stroke="url(#g2)" stroke-width="3"/>
  <path d="M74 74 C100 74 104 58 132 52 C152 48 172 52 186 61" fill="none" stroke="url(#g2)" stroke-width="6" stroke-linecap="round"/>
  <ellipse cx="120" cy="128" rx="98" ry="14" fill="#0a0c14" stroke="#38bdf8" stroke-width="2" opacity="0.9"/>
</svg>
