<svg viewBox="0 0 240 160" xmlns="http://www.w3.org/2000/svg">
  <defs>
    <linearGradient id="g6" x1="0" y1="0" x2="1" y2="1">
      <stop offset="0%" stop-color="#fda4af"/>
      <stop offset="100%" stop-color="#fb7185"/>
    </linearGradient>
  </defs>
  <ellipse cx="120" cy="142" rx="102" ry="9" fill="#000" opacity="0.25"/>
  <path d="M18 108 C18 86 48 76 74 76 C100 76 104 58 132 52 C166 45 192 58 206 76 C218 90 218 110 204 120 C186 132 144 134 96 134 C58 134 22 126 18 108 Z" fill="#1a1116" stroke="url(#g6)" stroke-width="3"/>
  <path d="M74 76 C100 76 104 58 132 52 C152 48 170 52 184 61" fill="none" stroke="url(#g6)" stroke-width="6" stroke-linecap="round"/>
  <circle cx="60" cy="102" r="4" fill="#fb7185"/>
  <circle cx="90" cy="98" r="4" fill="#fb7185"/>
  <circle cx="120" cy="95" r="4" fill="#fb7185"/>
</svg>
