<svg viewBox="0 0 240 160" xmlns="http://www.w3.org/2000/svg">
  <defs>
    <linearGradient id="g3" x1="0" y1="0" x2="1" y2="1">
      <stop offset="0%" stop-color="#ff8a65"/>
      <stop offset="100%" stop-color="#ff5a3c"/>
    </linearGradient>
  </defs>
  <ellipse cx="120" cy="142" rx="102" ry="9" fill="#000" opacity="0.25"/>
  <path d="M18 106 C18 82 48 72 74 72 C100 72 106 56 134 50 C170 43 196 56 210 74 C222 88 222 110 206 122 C186 134 144 136 94 136 C56 136 22 126 18 106 Z" fill="#161810" stroke="url(#g3)" stroke-width="3"/>
  <path d="M74 72 C100 72 106 56 134 50 C154 46 174 50 188 59" fill="none" stroke="url(#g3)" stroke-width="6" stroke-linecap="round"/>
  <g stroke="#3f4a2f" stroke-width="4" stroke-linecap="round">
    <line x1="30" y1="128" x2="42" y2="118"/>
    <line x1="55" y1="130" x2="67" y2="118"/>
    <line x1="80" y1="131" x2="92" y2="119"/>
    <line x1="105" y1="132" x2="117" y2="120"/>
    <line x1="130" y1="132" x2="142" y2="120"/>
    <line x1="155" y1="130" x2="167" y2="118"/>
    <line x1="180" y1="128" x2="192" y2="116"/>
  </g>
</svg>
